# xmcd
#
# Track frame offsets:
#	150
#	4819
#	20949
#	38852
#	57585
#	72996
#	90856
#	111484
#	130182
#	148013
#	161940
#
# Disc length: 2563 seconds
#
# Revision: 0
# Processed by: cddbd v1.5.2PL0 Copyright (c) Steve Scherf et al.
# Submitted via: EasyCDDAExtractor 2010.6.0.0
#
DISCID=a00a010b
DTITLE=Jeijjo and Nupi - Kootut selitykset
DYEAR=2012
DGENRE=hip-Hop
TTITLE0=Intro
TTITLE1=Hunsvotit
TTITLE2=Puumanainen
TTITLE3=Palkkapäivä
TTITLE4=Äidin uus mies
TTITLE5=Kootut selitykset
TTITLE6=Ostarin väliköissä part 3
TTITLE7=Mäkiviikko
TTITLE8=Brändi, johon voit luottaa
TTITLE9=Köyhiä vi***taa ku räppärit räppää
TTITLE10=Juopon tuurilla
EXTD=
EXTT0=
EXTT1=
EXTT2=
EXTT3=
EXTT4=
EXTT5=
EXTT6=
EXTT7=
EXTT8=
EXTT9=
EXTT10=
PLAYORDER=
